<?xml version="1.0" encoding="UTF-8" standalone="no"?>
<!-- Created with Inkscape (http://www.inkscape.org/) -->

<svg
   xmlns:dc="http://purl.org/dc/elements/1.1/"
   xmlns:cc="http://creativecommons.org/ns#"
   xmlns:rdf="http://www.w3.org/1999/02/22-rdf-syntax-ns#"
   xmlns:svg="http://www.w3.org/2000/svg"
   xmlns="http://www.w3.org/2000/svg"
   xmlns:sodipodi="http://sodipodi.sourceforge.net/DTD/sodipodi-0.dtd"
   xmlns:inkscape="http://www.inkscape.org/namespaces/inkscape"
   width="200"
   height="200"
   id="svg2"
   version="1.1"
   inkscape:version="0.48.3.1 r9886"
   inkscape:export-filename="/home/christoffer/applications/cplusplus11/advancedMetadataMockUp/img/collage.png"
   inkscape:export-xdpi="90"
   inkscape:export-ydpi="90"
   sodipodi:docname="New document 1">
  <defs
     id="defs4" />
  <sodipodi:namedview
     id="base"
     pagecolor="#ffffff"
     bordercolor="#666666"
     borderopacity="1.0"
     inkscape:pageopacity="1"
     inkscape:pageshadow="2"
     inkscape:zoom="3.685"
     inkscape:cx="95.929444"
     inkscape:cy="100"
     inkscape:document-units="px"
     inkscape:current-layer="layer1"
     showgrid="false"
     inkscape:window-width="1280"
     inkscape:window-height="1000"
     inkscape:window-x="0"
     inkscape:window-y="24"
     inkscape:window-maximized="1" />
  <metadata
     id="metadata7">
    <rdf:RDF>
      <cc:Work
         rdf:about="">
        <dc:format>image/svg+xml</dc:format>
        <dc:type
           rdf:resource="http://purl.org/dc/dcmitype/StillImage" />
        <dc:title></dc:title>
      </cc:Work>
    </rdf:RDF>
  </metadata>
  <g
     inkscape:label="Layer 1"
     inkscape:groupmode="layer"
     id="layer1"
     transform="translate(0,-852.36218)">
    <path
       sodipodi:type="arc"
       style="fill:none;stroke:#000000;stroke-width:2;stroke-miterlimit:4;stroke-opacity:1;stroke-dasharray:none"
       id="path2985"
       sodipodi:cx="101.49254"
       sodipodi:cy="112.61872"
       sodipodi:rx="8.1411123"
       sodipodi:ry="8.1411123"
       d="m 109.63365,112.61872 a 8.1411123,8.1411123 0 1 1 -16.282224,0 8.1411123,8.1411123 0 1 1 16.282224,0 z"
       transform="translate(0,852.36218)"
       inkscape:export-filename="/home/christoffer/applications/cplusplus11/advancedMetadataMockUp/img/car.png"
       inkscape:export-xdpi="150.61655"
       inkscape:export-ydpi="150.61655" />
    <path
       transform="translate(69.742197,852.36218)"
       sodipodi:type="arc"
       style="fill:none;stroke:#000000;stroke-width:2;stroke-miterlimit:4;stroke-opacity:1;stroke-dasharray:none"
       id="path2985-9"
       sodipodi:cx="101.49254"
       sodipodi:cy="112.61872"
       sodipodi:rx="8.1411123"
       sodipodi:ry="8.1411123"
       d="m 109.63365,112.61872 a 8.1411123,8.1411123 0 1 1 -16.282224,0 8.1411123,8.1411123 0 1 1 16.282224,0 z"
       inkscape:export-filename="/home/christoffer/applications/cplusplus11/advancedMetadataMockUp/img/car.png"
       inkscape:export-xdpi="150.61655"
       inkscape:export-ydpi="150.61655" />
    <path
       style="fill:none;stroke:#000000;stroke-width:1px;stroke-linecap:butt;stroke-linejoin:miter;stroke-opacity:1"
       d="m 90.36635,112.34735 c -2.351877,0 -4.703754,0 -7.055631,0 -0.230297,0 -1.478622,-0.0499 -1.628222,0 -0.121361,0.0405 -0.156951,0.21416 -0.271371,0.27137 -0.07135,0.0357 -0.943576,0 -1.085481,0 -0.271371,0 -0.556667,-0.0858 -0.814112,0 -0.07948,0.0265 -0.324359,0.48976 -0.542741,0.27137 -0.0087,-0.009 0,-0.74829 0,-0.81411 0,-1.80913 0,-3.61827 0,-5.4274 0,-0.90457 0,-1.80914 0,-2.71371 0,-0.27137 0.121361,-0.57139 0,-0.81411 -0.04045,-0.0809 -0.207407,0.064 -0.27137,0 -0.06396,-0.064 0,-0.18091 0,-0.27137 0,-0.54274 0,-1.08548 0,-1.62822 0,-0.0905 0,-0.18092 0,-0.27137 0,-0.0905 0.06396,-0.20741 0,-0.27137 -0.06396,-0.064 -0.207408,0.064 -0.27137,0 -0.06396,-0.064 0,-0.18092 0,-0.27137 0,-0.0905 0,-0.18092 0,-0.27137 0,-0.12796 -0.0123,-1.344558 0,-1.356857 0.0087,-0.0087 0.748296,0 0.814111,0 1.266395,0 2.53279,0 3.799186,0 0.09046,0 0.180913,0 0.27137,0 0.09046,0 0.207408,0.06396 0.271371,0 0.06396,-0.06396 -0.06396,-0.207408 0,-0.27137 0.0653,-0.0653 1.020181,0.0653 1.085481,0 0.06396,-0.06396 -0.06396,-0.207408 0,-0.271371 0.0653,-0.0653 1.020182,0.0653 1.085482,0 0.06396,-0.06396 -0.06396,-0.207408 0,-0.27137 0.05548,-0.05548 0.706515,0.0538 0.814111,0 0.11442,-0.05721 0.156951,-0.214161 0.271371,-0.271371 0.187444,-0.09372 1.261595,0.09526 1.356852,0 0.06396,-0.06396 -0.06396,-0.207407 0,-0.27137 0.06396,-0.06396 0.180913,0 0.27137,0 0.452284,0 0.904568,0 1.356852,0 0.09046,0 0.207408,0.06396 0.271371,0 0.06396,-0.06396 -0.06396,-0.207408 0,-0.27137 0.06396,-0.06396 0.180913,0 0.27137,0 0.188749,0 1.258716,0.04907 1.356852,0 0.11442,-0.05721 0.156951,-0.214161 0.271371,-0.271371 0.217096,-0.108548 0.597015,0.108548 0.814111,0 0.11442,-0.05721 0.15695,-0.21416 0.27137,-0.27137 0.173412,-0.08671 0.867056,0.07281 1.085482,0 0.191888,-0.06396 0.350853,-0.207408 0.542741,-0.271371 0.186657,-0.06222 0.653997,0.08006 0.814111,0 0.11442,-0.05721 0.156951,-0.21416 0.27137,-0.27137 0.147216,-0.07361 1.011229,0.07425 1.085482,0 0.06396,-0.06396 -0.06396,-0.207408 0,-0.271371 0.0653,-0.0653 1.020182,0.0653 1.085482,0 0.06396,-0.06396 -0.06396,-0.207407 0,-0.27137 0.135685,-0.135685 0.678426,0.135685 0.814111,0 0.06396,-0.06396 -0.06396,-0.207408 0,-0.27137 0.127925,-0.127926 0.380927,0.08091 0.542741,0 0.11442,-0.05721 0.156951,-0.214161 0.27137,-0.271371 0.08091,-0.04045 0.190464,0.04045 0.271371,0 0.228835,-0.11442 0.313905,-0.428321 0.542745,-0.542741 0.0809,-0.04045 0.19046,0.04045 0.27137,0 0.11442,-0.05721 0.15695,-0.21416 0.27137,-0.27137 0.0809,-0.04045 0.19046,0.04045 0.27137,0 0.11442,-0.05721 0.15695,-0.214161 0.27137,-0.27137 0.0809,-0.04045 0.20741,0.06396 0.27137,0 0.064,-0.06396 -0.064,-0.207408 0,-0.271371 0.13568,-0.135685 0.67842,0.135685 0.81411,0 0.12792,-0.127925 -0.0809,-0.380927 0,-0.542741 0.0405,-0.08091 0.18555,0.0286 0.27137,0 0.19189,-0.06396 0.34651,-0.222313 0.54274,-0.27137 0.17551,-0.04388 0.39221,0.100353 0.54274,0 0.1683,-0.112198 0.12835,-0.399716 0.27137,-0.542741 0.14303,-0.143025 0.39972,-0.128346 0.54274,-0.27137 0.33053,-0.330525 0.12712,-0.606299 0.54274,-0.814112 0.0809,-0.04045 0.19047,0.04045 0.27137,0 0.11442,-0.05721 0.15695,-0.21416 0.27137,-0.27137 0.0809,-0.04045 0.20741,0.06396 0.27137,0 0.064,-0.06396 -0.064,-0.207408 0,-0.271371 0.12793,-0.127925 0.41482,0.127926 0.54275,0 0.064,-0.06396 -0.0405,-0.190463 0,-0.27137 0.56468,-1.129379 -0.0187,0.290105 0.54274,-0.27137 0.064,-0.06396 -0.064,-0.207408 0,-0.271371 0.064,-0.06396 0.18091,0 0.27137,0 0,-0.09046 -0.064,-0.207408 0,-0.27137 0.064,-0.06396 0.2074,0.06396 0.27137,0 0.064,-0.06396 -0.064,-0.207408 0,-0.271371 0.064,-0.06396 0.19046,0.04045 0.27137,0 0.32564,-0.162822 0.48846,-0.651289 0.81411,-0.814111 0.0809,-0.04045 0.20741,0.06396 0.27137,0 0.064,-0.06396 -0.064,-0.207408 0,-0.27137 0.064,-0.06396 0.20741,0.06396 0.27137,0 0.064,-0.06396 -0.064,-0.207408 0,-0.271371 0.064,-0.06396 0.20741,0.06396 0.27137,0 0.064,-0.06396 -0.0405,-0.190463 0,-0.27137 0.0572,-0.11442 0.21416,-0.156951 0.27137,-0.271371 0.0405,-0.08091 -0.064,-0.207407 0,-0.27137 0.064,-0.06396 0.20741,0.06396 0.27137,0 0.12793,-0.127925 -0.12792,-0.414816 0,-0.542741 0.064,-0.06396 0.20741,0.06396 0.27137,0 0.064,-0.06396 -0.0405,-0.190463 0,-0.27137 0.0572,-0.11442 0.21416,-0.156951 0.27137,-0.271371 0.0405,-0.08091 -0.0405,-0.190463 0,-0.27137 0.0572,-0.11442 0.21416,-0.156951 0.27137,-0.271371 0.0405,-0.08091 -0.064,-0.207407 0,-0.27137 0.064,-0.06396 0.20741,0.06396 0.27137,0 0.12793,-0.127925 -0.0809,-0.380927 0,-0.542741 0.0572,-0.11442 0.21416,-0.15695 0.27137,-0.27137 0.0809,-0.161814 -0.0809,-0.380927 0,-0.542741 0.0572,-0.11442 0.21416,-0.156951 0.27137,-0.27137 0.0809,-0.161815 -0.0809,-0.380927 0,-0.542741 0.0572,-0.11442 0.21416,-0.156951 0.27137,-0.271371 0.0809,-0.161814 -0.0809,-0.380926 0,-0.542741 0.0572,-0.114419 0.21416,-0.15695 0.27137,-0.27137 0.0809,-0.161814 -0.0809,-0.380927 0,-0.542741 0.0572,-0.11442 0.21416,-0.15695 0.27137,-0.27137 0.0538,-0.107596 -0.0555,-0.758633 0,-0.814111 0.064,-0.06396 0.20741,0.06396 0.27137,0 0.13569,-0.135686 -0.13568,-0.678427 0,-0.814112 0.064,-0.06396 0.20741,0.06396 0.27138,0 0.13568,-0.135685 -0.13569,-0.678426 0,-0.814111 0.064,-0.06396 0.19046,0.04045 0.27137,0 1.12937,-0.564689 -0.29011,0.01873 0.27137,-0.542741 0.064,-0.06396 0.2074,0.06396 0.27137,0 0.064,-0.06396 -0.064,-0.207408 0,-0.27137 0.064,-0.06396 0.19046,0.04045 0.27137,0 0.11442,-0.05721 0.15695,-0.214161 0.27137,-0.271371 0.0809,-0.04045 0.19046,0.04045 0.27137,0 0.22884,-0.11442 0.3139,-0.428321 0.54274,-0.542741 0.0809,-0.04045 0.19046,0.04045 0.27137,0 0.22884,-0.114419 0.3139,-0.428321 0.54274,-0.54274 0.0809,-0.04045 0.18091,0 0.27137,0 0.0905,0 0.18091,0 0.27137,0 0.54274,0 1.08548,0 1.62822,0 0.0905,0 0.18092,0 0.27137,0 0.0905,0 0.20741,0.06396 0.27137,0 0.064,-0.06396 -0.064,-0.207408 0,-0.271371 0.064,-0.06396 0.18092,0 0.27137,0 0.0905,0 0.18092,0 0.27138,0 1.17593,0 2.35187,0 3.52781,0 3.3469,0 6.6938,0 10.04071,0 4.79421,0 9.58842,0 14.38263,0 1.99005,0 3.9801,0 5.97015,0 0.0658,0 0.80538,-0.0087 0.81411,0 0.064,0.06396 -0.064,0.207408 0,0.271371 0.007,0.0066 1.61832,-0.0033 1.62822,0 0.30941,0.103136 0.51129,0.421613 0.81411,0.54274 0.33595,0.13438 0.76186,-0.161814 1.08548,0 0.22884,0.11442 0.31391,0.428321 0.54275,0.542741 0.16181,0.08091 0.38092,-0.08091 0.54274,0 0.0809,0.04045 -0.064,0.207408 0,0.271371 0.064,0.06396 0.2074,-0.06396 0.27137,0 0.064,0.06396 -0.064,0.207408 0,0.27137 0.064,0.06396 0.2074,-0.06396 0.27137,0 0.064,0.06396 -0.0405,0.190464 0,0.271371 0.11442,0.228839 0.46183,0.300019 0.54274,0.54274 0.0572,0.17163 -0.0809,0.380927 0,0.542741 0.0405,0.08091 0.20741,-0.06396 0.27137,0 0.064,0.06396 -0.064,0.207408 0,0.271371 0.064,0.06396 0.20741,-0.06396 0.27137,0 0.064,0.06396 -0.0404,0.190463 0,0.27137 0.0572,0.11442 0.21416,0.156951 0.27137,0.271371 0.0405,0.08091 -0.0404,0.190463 0,0.27137 0.0572,0.11442 0.21416,0.156951 0.27137,0.27137 0.0404,0.08091 -0.064,0.207408 0,0.271371 0.064,0.06396 0.20741,-0.06396 0.27137,0 0.064,0.06396 -0.0404,0.190463 0,0.27137 0.13352,0.267036 0.95196,0.818446 1.08548,1.085482 0.0405,0.08091 -0.064,0.207408 0,0.27137 0.064,0.06396 0.20741,-0.06396 0.27137,0 0.064,0.06396 -0.064,0.207408 0,0.271371 0.064,0.06396 0.20741,-0.06396 0.27137,0 0.12793,0.127925 -0.12792,0.414815 0,0.542741 0.064,0.06396 0.19047,-0.04045 0.27137,0 1.12938,0.564689 -0.2901,-0.01873 0.27137,0.54274 0.064,0.06396 0.20741,-0.06396 0.27137,0 0.064,0.06396 -0.064,0.207408 0,0.271371 0.064,0.06396 0.20741,-0.06396 0.27137,0 0.064,0.06396 -0.0404,0.190463 0,0.27137 0.11442,0.22884 0.42833,0.313901 0.54274,0.542741 0.0405,0.08091 -0.0404,0.190463 0,0.27137 0.56469,1.129379 -0.0187,-0.290104 0.54275,0.271371 0.064,0.06396 -0.0405,0.190463 0,0.27137 0.0572,0.11442 0.21416,0.156951 0.27137,0.271371 0.0404,0.08091 -0.064,0.207408 0,0.27137 0.064,0.06396 0.2074,-0.06396 0.27137,0 0.064,0.06396 -0.0405,0.190464 0,0.271371 0.0572,0.114419 0.21416,0.15695 0.27137,0.27137 0.0404,0.08091 -0.064,0.207408 0,0.27137 0.064,0.06396 0.2074,-0.06396 0.27137,0 0.12792,0.127926 -0.12793,0.414816 0,0.542741 0.064,0.06396 0.19046,-0.04045 0.27137,0 1.12938,0.56469 -0.29011,-0.01873 0.27137,0.542741 0.064,0.06396 0.20741,-0.06396 0.27137,0 0.064,0.06396 -0.064,0.207408 0,0.271371 0.064,0.06396 0.20741,-0.06396 0.27137,0 0.064,0.06396 -0.064,0.207407 0,0.27137 0.064,0.06396 0.20741,-0.06396 0.27137,0 0.56147,0.561475 -0.85801,-0.02195 0.27137,0.542741 0.0809,0.04045 0.19046,-0.04045 0.27137,0 0.11442,0.05721 0.15695,0.21416 0.27137,0.27137 0.0809,0.04045 0.20741,-0.06396 0.27137,0 0.064,0.06396 -0.064,0.207408 0,0.271371 0.12793,0.127925 0.41482,-0.127926 0.54274,0 0.064,0.06396 -0.064,0.207407 0,0.27137 0.12793,0.127925 0.41482,-0.127925 0.54274,0 0.064,0.06396 -0.064,0.207408 0,0.27137 0.12793,0.127926 0.41482,-0.127925 0.54274,0 0.064,0.06396 -0.064,0.207408 0,0.271371 0.12793,0.127925 0.38093,-0.08091 0.54274,0 0.11442,0.05721 0.15696,0.21416 0.27137,0.27137 0.2171,0.108548 0.59702,-0.108548 0.81412,0 0.11442,0.05721 0.15695,0.214161 0.27137,0.271371 0.16011,0.08006 0.62745,-0.06222 0.81411,0 0.19189,0.06396 0.35085,0.207408 0.54274,0.27137 0.21842,0.07281 0.91207,-0.08671 1.08548,0 0.11442,0.05721 0.15695,0.214161 0.27137,0.271371 0.2171,0.108548 0.59702,-0.108549 0.81411,0 0.11442,0.05721 0.15695,0.21416 0.27137,0.27137 0.2171,0.108548 0.59702,-0.108548 0.81411,0 0.11442,0.05721 0.15695,0.214161 0.27137,0.27137 0.15223,0.07611 0.97296,-0.07501 1.08549,0 0.21288,0.141921 0.32986,0.400821 0.54274,0.542741 0.12588,0.08392 1.45388,-0.08717 1.62822,0 0.0809,0.04045 -0.064,0.207408 0,0.271371 0.064,0.06396 0.18091,0 0.27137,0 0.0905,0 0.18091,0 0.27137,0 0.54274,0 1.08548,0 1.62822,0 0.0905,0 0.18092,0 0.27137,0 0.0905,0 0.19047,-0.04045 0.27137,0 0.22066,0.110327 0.22454,0.430473 0.54274,0.27137 0.11442,-0.05721 0.15695,-0.21416 0.27137,-0.27137 0.0714,-0.03568 0.94358,0 1.08549,0 0.81411,0 1.62822,0 2.44233,0 0.72365,0 1.44731,0 2.17096,0 0.0905,0 0.18092,0 0.27137,0 0.0905,0 0.27137,-0.09046 0.27137,0 0,0.09046 -0.36182,0 -0.27137,0 0.18092,0 0.37112,-0.05721 0.54274,0 0.24273,0.08091 0.31391,0.428321 0.54275,0.542741 0.0809,0.04045 0.1961,-0.05018 0.27137,0 0.42576,0.28384 0.65972,0.801641 1.08548,1.085481 0.0753,0.05018 0.20741,-0.06396 0.27137,0 0.064,0.06396 -0.064,0.207408 0,0.271371 0.064,0.06396 0.20741,-0.06396 0.27137,0 0.064,0.06396 -0.0809,0.230917 0,0.27137 0.16181,0.08091 0.37111,-0.05721 0.54274,0 0.12136,0.04045 0.36183,0.180914 0.27137,0.27137 -0.0905,0.09046 -0.27137,-0.399295 -0.27137,-0.27137 0,0.202268 0.12835,0.399716 0.27137,0.542741 0.064,0.06396 0.20741,-0.06396 0.27137,0 0.064,0.06396 -0.0404,0.190463 0,0.27137 0.56469,1.129379 -0.0187,-0.290104 0.54274,0.271371 0.064,0.06396 -0.064,0.207408 0,0.27137 0.064,0.06396 0.20741,-0.06396 0.27137,0 0.12793,0.127925 -0.12792,0.414816 0,0.542741 0.064,0.06396 0.20741,-0.06396 0.27137,0 0.064,0.06396 -0.0405,0.190463 0,0.27137 0.0572,0.11442 0.21416,0.156951 0.27137,0.271371 0.0405,0.08091 -0.064,0.207408 0,0.27137 0.064,0.06396 0.20741,-0.06396 0.27137,0 0.064,0.06396 -0.0404,0.190464 0,0.271371 0.0572,0.11442 0.21416,0.15695 0.27137,0.27137 0.0405,0.08091 -0.0405,0.190464 0,0.271371 0.0572,0.114419 0.21416,0.15695 0.27137,0.27137 0.0538,0.107596 -0.0555,0.758636 0,0.814116 0.064,0.064 0.20741,-0.064 0.27137,0 0.0555,0.0555 -0.0538,0.70651 0,0.81411 0.0572,0.11442 0.21416,0.15695 0.27137,0.27137 0.0824,0.16478 -0.0824,1.46344 0,1.62822 0.0572,0.11442 0.21417,0.15695 0.27137,0.27137 0.0413,0.0826 0,0.6919 0,0.81411 0,0.54274 0,1.08548 0,1.62822 0,0.12795 0.0123,1.34456 0,1.35686 -0.064,0.064 -0.2074,-0.064 -0.27137,0 -0.12792,0.12792 0.12793,0.41481 0,0.54274 -0.064,0.064 -0.2074,-0.064 -0.27137,0 -0.12792,0.12792 0.12793,0.41481 0,0.54274 -0.064,0.064 -0.2074,-0.064 -0.27137,0 -0.12792,0.12792 0.12793,0.41481 0,0.54274 -0.064,0.064 -0.2074,-0.064 -0.27137,0 -0.064,0.064 0.0405,0.19046 0,0.27137 -0.0572,0.11442 -0.18091,0.18091 -0.27137,0.27137 -0.0905,0.0905 -0.15695,0.21416 -0.27137,0.27137 -0.0809,0.0405 -0.20741,-0.064 -0.27137,0 -0.064,0.064 0.064,0.20741 0,0.27137 -0.0653,0.0653 -1.02018,-0.0653 -1.08548,0 -0.064,0.064 0.064,0.20741 0,0.27137 -0.064,0.064 -0.18091,0 -0.27137,0 -0.18875,0 -1.25872,0.0491 -1.35685,0 -0.11442,-0.0572 -0.15695,-0.21416 -0.27137,-0.27137 -0.1712,-0.0856 -1.18566,0.0856 -1.35685,0 -0.11442,-0.0572 -0.15696,-0.21416 -0.27138,-0.27137 -0.16181,-0.0809 -0.38092,0.0809 -0.54274,0 -0.11442,-0.0572 -0.15695,-0.21416 -0.27137,-0.27137 -0.16181,-0.0809 -0.38092,0.0809 -0.54274,0 -0.11442,-0.0572 -0.15695,-0.21416 -0.27137,-0.27137 -0.16181,-0.0809 -0.41481,0.12792 -0.54274,0 -0.064,-0.064 0.064,-0.20741 0,-0.27137 -0.13568,-0.13569 -0.67842,0.13568 -0.81411,0 -0.064,-0.064 0.064,-0.20741 0,-0.27137 -0.12793,-0.12793 -0.38093,0.0809 -0.54274,0 -0.11442,-0.0572 -0.15695,-0.21416 -0.27137,-0.27137 -0.0809,-0.0405 -0.20741,0.064 -0.27137,0 -0.064,-0.064 0.064,-0.20741 0,-0.27137 -0.064,-0.064 -0.19046,0.0405 -0.27137,0 -0.11442,-0.0572 -0.15695,-0.21416 -0.27137,-0.27137 -0.0809,-0.0405 -0.20741,0.064 -0.27137,0 -0.064,-0.064 0.064,-0.20741 0,-0.27137 -0.064,-0.064 -0.19047,0.0404 -0.27137,0 -0.11442,-0.0572 -0.15695,-0.21416 -0.27137,-0.27137 -0.0809,-0.0405 -0.20741,0.064 -0.27137,0 -0.064,-0.064 0.064,-0.20741 0,-0.27137 -0.064,-0.064 -0.19047,0.0405 -0.27137,0 -0.26704,-0.13352 -0.81845,-0.95197 -1.08549,-1.08549 -0.66837,-0.33418 0.24498,0.78772 -0.81411,-0.27137 -0.14302,-0.14302 -0.20741,-0.35085 -0.27137,-0.54274 -0.0286,-0.0858 0.0809,-0.23091 0,-0.27137 -0.16181,-0.0809 -0.38092,0.0809 -0.54274,0 -0.0328,-0.0164 -1.02181,-1.03773 -1.08548,-1.08548 0.0604,-0.49932 -0.64641,-0.18752 -0.81411,-0.27137 -0.29172,-0.14586 -0.55944,-0.339 -0.81411,-0.54274 -0.0583,-0.0467 -1.06138,-1.07343 -1.08548,-1.08548 -0.16182,-0.0809 -0.38093,0.0809 -0.54275,0 -0.22883,-0.11442 -0.36182,-0.36183 -0.54274,-0.54274 -0.0905,-0.0905 -0.14726,-0.24035 -0.27137,-0.27137 -0.26326,-0.0658 -0.58831,0.15053 -0.81411,0 -0.15053,-0.10036 0.15053,-0.44239 0,-0.54274 -0.22579,-0.150534 -0.56215,0.10078 -0.81411,0 -0.23755,-0.095 -0.3139,-0.428326 -0.54274,-0.542746 -0.26997,-0.134984 -0.76043,0.107366 -0.81411,0 -0.0809,-0.161814 0.0809,-0.380926 0,-0.54274 -0.0809,-0.161815 -0.41482,0.127925 -0.54274,0 -0.064,-0.06396 0.064,-0.207408 0,-0.271371 -0.0653,-0.0653 -1.02018,0.0653 -1.08548,0 -0.36183,-0.361827 0.45228,-0.27137 -0.27137,-0.27137 -0.0997,0 -1.07457,-0.01092 -1.08549,0 -0.064,0.06396 0.064,0.207407 0,0.27137 -0.12792,0.127925 -0.41481,-0.127925 -0.54274,0 -0.064,0.06396 0.064,0.207408 0,0.271371 -0.064,0.06396 -0.19046,-0.04045 -0.27137,0 -0.11442,0.05721 -0.15695,0.21416 -0.27137,0.27137 -0.0809,0.04045 -0.19046,-0.04045 -0.27137,0 -0.11442,0.05721 -0.15695,0.21416 -0.27137,0.27137 -0.16181,0.08091 -0.41481,-0.127925 -0.54274,0 -0.064,0.06396 0.064,0.207408 0,0.271371 -0.064,0.06396 -0.20741,-0.06396 -0.27137,0 -0.064,0.06396 0.064,0.207405 0,0.271375 -0.064,0.064 -0.18556,-0.0286 -0.27137,0 -0.19189,0.064 -0.39972,0.12834 -0.54274,0.27137 -0.14303,0.14302 -0.10307,0.43054 -0.27137,0.54274 -0.15053,0.10035 -0.38093,-0.0809 -0.54274,0 -0.0809,0.0405 0.064,0.2074 0,0.27137 -0.064,0.064 -0.19611,-0.0502 -0.27137,0 -0.21288,0.14192 -0.32986,0.40082 -0.54274,0.54274 -0.0753,0.0502 -0.18092,0 -0.27137,0 -0.18092,0.0905 -0.39972,0.12834 -0.54274,0.27137 -0.14303,0.14302 -0.10308,0.43054 -0.27138,0.54274 -0.15052,0.10035 -0.38092,-0.0809 -0.54274,0 -0.0809,0.0405 0.0405,0.19046 0,0.27137 -0.0572,0.11442 -0.18091,0.18091 -0.27137,0.27137 -0.18091,0.18091 -0.40082,0.32986 -0.54274,0.54274 -0.0502,0.0753 0.064,0.20741 0,0.27137 -0.064,0.064 -0.20741,-0.064 -0.27137,0 -0.064,0.064 0.064,0.20741 0,0.27137 -0.064,0.064 -0.20741,-0.064 -0.27137,0 -0.064,0.064 0.0405,0.19046 0,0.27137 -0.11442,0.22884 -0.42832,0.3139 -0.54274,0.54274 -0.0404,0.0809 0.064,0.20741 0,0.27137 -0.064,0.064 -0.20741,-0.064 -0.27137,0 -0.064,0.064 0.064,0.20741 0,0.27137 -0.064,0.064 -0.20741,-0.064 -0.27137,0 -0.064,0.064 0.0405,0.19047 0,0.27137 -0.16282,0.32565 -0.65129,0.48847 -0.81411,0.81412 -0.0404,0.0809 0.064,0.2074 0,0.27137 -0.12793,0.12792 -0.38093,-0.0809 -0.54274,0 -0.22884,0.11442 -0.3139,0.42832 -0.54274,0.54274 -0.16182,0.0809 -0.38093,-0.0809 -0.54274,0 -0.11442,0.0572 -0.15695,0.21416 -0.27137,0.27137 -0.0809,0.0405 -0.19047,-0.0405 -0.27137,0 -0.11442,0.0572 -0.15695,0.21416 -0.27137,0.27137 -0.0809,0.0404 -0.20741,-0.064 -0.27138,0 -0.064,0.064 0.0858,0.24276 0,0.27137 -0.25744,0.0858 -0.58831,-0.15053 -0.81411,0 -0.15053,0.10035 0.12793,0.41481 0,0.54274 -0.54274,0.54274 -0.40705,-0.27137 -0.81411,0 -0.21288,0.14192 -0.32986,0.40082 -0.54274,0.54274 -0.0892,0.0594 -1.20346,0 -1.35685,0 -1.24442,0 0.28605,-0.0572 -1.35685,0.27137 -0.30153,0.0603 -1.13071,-0.0905 -1.35685,0 -0.23756,0.095 -0.30519,0.44772 -0.54275,0.54274 -0.25196,0.10079 -0.55666,-0.0858 -0.81411,0 -0.30941,0.10314 -0.51129,0.42161 -0.81411,0.54274 -0.25559,0.10224 -1.61309,-0.0955 -1.89959,0 -0.30941,0.10314 -0.51129,0.42161 -0.81411,0.54274 -0.16798,0.0672 -0.37477,-0.0672 -0.54274,0 -0.30282,0.12113 -0.49771,0.46364 -0.81411,0.54274 -0.43878,0.1097 -0.90457,0 -1.35686,0 -0.45228,0 -0.90456,0 -1.35685,0 -0.45228,0 -0.91335,-0.0887 -1.35685,0 -0.47767,0.0955 -0.87919,0.44721 -1.35685,0.54274 -0.4435,0.0887 -0.90457,0 -1.35686,0 -0.18091,0 -0.37476,-0.0672 -0.54274,0 -0.30282,0.12113 -0.51129,0.42162 -0.81411,0.54274 -0.16797,0.0672 -0.36182,0 -0.54274,0 -0.18091,0 -0.36183,0 -0.54274,0 -0.54274,0 -1.08548,0 -1.62822,0 -2.17096,0 -4.34193,0 -6.51289,0 -1.08548,0 -2.17096,0 -3.25645,0 -0.0759,0 -1.31439,0.0212 -1.35685,0 -0.0809,-0.0405 0.064,-0.2074 0,-0.27137 -0.064,-0.064 -0.18091,0 -0.27137,0 -0.19235,0 -1.55806,0.0351 -1.62822,0 -0.11442,-0.0572 -0.15695,-0.21416 -0.27137,-0.27137 -0.54274,-0.27137 0,0.54274 -0.81411,0 -0.1683,-0.11219 -0.12835,-0.39971 -0.27137,-0.54274 -0.0555,-0.0555 -0.70652,0.0538 -0.81411,0 -0.11442,-0.0572 -0.15696,-0.21416 -0.27138,-0.27137 -0.16181,-0.0809 -0.41481,0.12793 -0.54274,0 -0.064,-0.064 0.064,-0.2074 0,-0.27137 -0.064,-0.064 -0.19046,0.0405 -0.27137,0 -0.11442,-0.0572 -0.15695,-0.21416 -0.27137,-0.27137 -0.0809,-0.0404 -0.19046,0.0405 -0.27137,0 -0.11442,-0.0572 -0.15695,-0.21416 -0.27137,-0.27137 -0.16181,-0.0809 -0.38092,0.0809 -0.54274,0 -0.11442,-0.0572 -0.15695,-0.21416 -0.27137,-0.27137 -0.0809,-0.0405 -0.19046,0.0404 -0.27137,0 -0.11442,-0.0572 -0.15695,-0.21416 -0.27137,-0.27137 -0.16181,-0.0809 -0.41482,0.12793 -0.54274,0 -0.064,-0.064 0.064,-0.20741 0,-0.27137 -0.064,-0.064 -0.19046,0.0405 -0.27137,0 -0.11442,-0.0572 -0.15695,-0.21416 -0.27137,-0.27137 -0.0809,-0.0405 -0.20741,0.064 -0.27137,0 -0.064,-0.064 0.064,-0.20741 0,-0.27137 -0.56148,-0.56148 0.022,0.85801 -0.54274,-0.27137 -0.0405,-0.0809 0.064,-0.20741 0,-0.27137 -0.064,-0.064 -0.19047,0.0404 -0.27137,0 -0.22884,-0.11442 -0.3139,-0.42832 -0.54274,-0.54274 -0.0809,-0.0405 -0.20741,0.064 -0.27137,0 -0.064,-0.064 0.0405,-0.19047 0,-0.27137 -0.56469,-1.12938 0.0187,0.2901 -0.54275,-0.27137 -0.064,-0.064 0.064,-0.20741 0,-0.27137 -0.064,-0.064 -0.2074,0.064 -0.27137,0 -0.064,-0.064 0.064,-0.20741 0,-0.27137 -0.064,-0.064 -0.2074,0.064 -0.27137,0 -0.064,-0.064 0.064,-0.20741 0,-0.27137 -0.064,-0.064 -0.2074,0.064 -0.27137,0 -0.064,-0.064 0.064,-0.20741 0,-0.27137 -0.064,-0.064 -0.2074,0.064 -0.27137,0 -0.064,-0.064 0.064,-0.20741 0,-0.27138 -0.12792,-0.12792 -0.41481,0.12793 -0.54274,0 -0.064,-0.064 0.0405,-0.19046 0,-0.27137 -0.30001,-0.60001 -0.16842,-0.0842 -0.54274,-0.27137 -0.11442,-0.0572 -0.15695,-0.21416 -0.27137,-0.27137 -0.0809,-0.0405 -0.20741,0.064 -0.27137,0 -0.064,-0.064 0.064,-0.2074 0,-0.27137 -0.064,-0.064 -0.19046,0.0405 -0.27137,0 -0.11442,-0.0572 -0.15695,-0.21416 -0.27137,-0.27137 -0.0809,-0.0404 -0.19046,0.0405 -0.27137,0 -0.22884,-0.11442 -0.3139,-0.42832 -0.54274,-0.54274 -0.0809,-0.0404 -0.20741,0.064 -0.27137,0 -0.064,-0.064 0.064,-0.20741 0,-0.27137 -0.064,-0.064 -0.19047,0.0405 -0.27137,0 -0.11442,-0.0572 -0.15695,-0.21416 -0.27137,-0.27137 -0.0809,-0.0405 -0.19047,0.0404 -0.27137,0 -0.11442,-0.0572 -0.15695,-0.21416 -0.27137,-0.27137 -0.0809,-0.0404 -0.20741,0.064 -0.27137,0 -0.064,-0.064 0.064,-0.20741 0,-0.27137 -0.12793,-0.12792 -0.41482,0.12793 -0.54275,0 -0.064,-0.064 0.064,-0.20741 0,-0.27137 -0.12792,-0.12793 -0.41481,0.12793 -0.54274,0 -0.064,-0.064 0.064,-0.20741 0,-0.27137 -0.13568,-0.13569 -0.67842,0.13568 -0.81411,0 -0.064,-0.064 0.064,-0.20741 0,-0.27137 -0.0653,-0.0653 -1.02018,0.0653 -1.08548,0 -0.064,-0.064 0.064,-0.20741 0,-0.27137 -0.0743,-0.0743 -0.93827,0.0736 -1.08548,0 -0.11442,-0.0572 -0.15695,-0.21416 -0.27137,-0.27137 -0.0805,-0.0402 -1.36575,0 -1.62822,0 -0.0905,0 -0.20741,0.064 -0.27137,0 -0.064,-0.064 0.064,-0.20741 0,-0.27137 -0.064,-0.064 -0.18092,0 -0.27137,0 -0.542745,0 -1.085486,0 -1.628227,0 -0.09046,0 -0.190463,-0.0405 -0.27137,0 -0.11442,0.0572 -0.156951,0.21416 -0.271371,0.27137 -0.217096,0.10855 -0.597015,-0.10855 -0.814111,0 -0.22884,0.11442 -0.313901,0.42832 -0.542741,0.54274 -0.08091,0.0405 -0.190463,-0.0404 -0.27137,0 -0.11442,0.0572 -0.156951,0.21416 -0.271371,0.27137 -0.161814,0.0809 -0.414815,-0.12793 -0.542741,0 -0.06396,0.064 0.06396,0.20741 0,0.27137 -0.127925,0.12793 -0.414815,-0.12793 -0.54274,0 -0.06396,0.064 0.06396,0.20741 0,0.27137 -0.06396,0.064 -0.207408,-0.064 -0.271371,0 -0.06396,0.064 0.06396,0.20741 0,0.27137 -0.06396,0.064 -0.207408,-0.064 -0.27137,0 -0.06396,0.064 0.06396,0.20741 0,0.27137 -0.06396,0.064 -0.190464,-0.0405 -0.271371,0 -0.05194,0.026 -1.059508,1.03354 -1.085481,1.08548 -0.04045,0.0809 0.06396,0.20741 0,0.27137 -0.06396,0.064 -0.207408,-0.064 -0.271371,0 -0.06396,0.064 0.06396,0.20741 0,0.27137 -0.06396,0.064 -0.207408,-0.064 -0.27137,0 -0.06396,0.064 0.04045,0.19047 0,0.27137 -0.05721,0.11442 -0.214161,0.15695 -0.271371,0.27137 -0.04045,0.0809 0.04045,0.19047 0,0.27137 -0.114419,0.22884 -0.428321,0.31391 -0.54274,0.54275 -0.187159,0.37431 0.328644,0.24273 -0.271371,0.54274 -0.08091,0.0405 -0.207408,-0.064 -0.27137,0 -0.06396,0.064 0.04045,0.19046 0,0.27137 -0.05721,0.11442 -0.214161,0.15695 -0.271371,0.27137 -0.04045,0.0809 0.04045,0.19046 0,0.27137 -0.05721,0.11442 -0.21416,0.15695 -0.27137,0.27137 -0.04045,0.0809 0.06396,0.20741 0,0.27137 -0.06396,0.064 -0.207408,-0.064 -0.271371,0 -0.127925,0.12792 0.127926,0.41481 0,0.54274 -0.06396,0.064 -0.207407,-0.064 -0.27137,0 -0.127925,0.12792 0.127925,0.41482 0,0.54274 -0.06396,0.064 -0.207408,-0.064 -0.27137,0 -0.135686,0.13569 0.135685,0.67843 0,0.81411 -0.06396,0.064 -0.207408,-0.064 -0.271371,0 -0.06396,0.064 -0.0286,0.18556 0,0.27137 0.154043,0.46213 0.361827,0.90457 0.542741,1.35685 z"
       id="path3007"
       inkscape:connector-curvature="0"
       transform="translate(0,852.36218)"
       inkscape:export-filename="/home/christoffer/applications/cplusplus11/advancedMetadataMockUp/img/car.png"
       inkscape:export-xdpi="150.61655"
       inkscape:export-ydpi="150.61655" />
    <path
       sodipodi:type="star"
       style="fill:#ffff00;stroke:#ffff00;stroke-width:2;stroke-miterlimit:4;stroke-opacity:1;stroke-dasharray:none"
       id="path3011"
       sodipodi:sides="9"
       sodipodi:cx="26.051559"
       sodipodi:cy="18.72456"
       sodipodi:r1="24.573637"
       sodipodi:r2="12.286818"
       sodipodi:arg1="0.53284389"
       sodipodi:arg2="0.88190974"
       inkscape:flatsided="false"
       inkscape:rounded="0"
       inkscape:randomized="0"
       d="M 47.218452,31.207599 33.86202,28.209421 34.242397,41.892939 25.937968,31.010852 17.433758,41.737537 18.067067,28.063391 4.6574836,30.814107 13.932198,20.746186 1.8917353,14.233843 15.468114,12.483041 10.430637,-0.24516413 21.956141,7.1403709 26.278742,-5.8480271 30.36046,7.218072 42.020546,0.04689651 36.748597,12.679787 50.290283,14.681306 38.131471,20.969918 z"
       transform="translate(17.096336,875.42867)"
       inkscape:transform-center-x="-0.039449877"
       inkscape:transform-center-y="-0.7021036"
       inkscape:export-filename="/home/christoffer/applications/cplusplus11/advancedMetadataMockUp/img/sun.png"
       inkscape:export-xdpi="333.31812"
       inkscape:export-ydpi="333.31812" />
  </g>
</svg>
